<svg version="1.1" viewBox="0 0 64 64" xmlns="http://www.w3.org/2000/svg" xmlns:xlink="http://www.w3.org/1999/xlink">
 <defs>
  <linearGradient id="linearGradient4517" x1="20.492" x2="54.661" y1="14.644" y2="33.085" gradientUnits="userSpaceOnUse">
   <stop stop-color="#004b6c" offset="0"/>
   <stop stop-color="#6cd2ff" offset="1"/>
  </linearGradient>
 </defs>
 <ellipse cx="31.729" cy="31.593" rx="30.346" ry="30.21" fill="#0fea92"/>
 <path transform="translate(5 16)" d="M13.5 11.1C15.3 3.9 19.8.3 27 .3c10.8 0 12.15 8.1 17.55 9.45 3.6.9 6.75-.45 9.45-4.05-1.8 7.2-6.3 10.8-13.5 10.8-10.8 0-12.15-8.1-17.55-9.45-3.6-.9-6.75.45-9.45 4.05zM0 27.3c1.8-7.2 6.3-10.8 13.5-10.8 10.8 0 12.15 8.1 17.55 9.45 3.6.9 6.75-.45 9.45-4.05-1.8 7.2-6.3 10.8-13.5 10.8-10.8 0-12.15-8.1-17.55-9.45-3.6-.9-6.75.45-9.45 4.05z" fill="url(#linearGradient4517)" fill-rule="evenodd"/>
</svg>
